# xmcd
#
# Track frame offsets: 
#        150
#        12525
#        22863
#        33898
#        47154
#        57354
#        67254
#        81504
#        90217
#        102266
#
# Disc length: 1527 seconds
#
# Revision: 0
# Processed by: cddbd v1.5.2PL0 Copyright (c) Steve Scherf et al.
# Submitted via: ExactAudioCopyFreeDBPlugin 1.0
#
DISCID=7a05f50a
DTITLE=Union Rail - If the Good Lord's Willin' and the Creeks Don't Ri
DTITLE=se
DYEAR=2012
DGENRE=Bluegrass
TTITLE0=Noraline
TTITLE1=Hassels 45
TTITLE2=Union Rail
TTITLE3=Gone Gone Gone
TTITLE4=Broke n Down
TTITLE5=Shinin
TTITLE6=Take it Back
TTITLE7=Mayor Clayton Brown
TTITLE8=Drunk on the Town
TTITLE9=Be Alright
EXTD=
EXTT0=
EXTT1=
EXTT2=
EXTT3=
EXTT4=
EXTT5=
EXTT6=
EXTT7=
EXTT8=
EXTT9=
PLAYORDER=
